# xmcd
#
# Track frame offsets: 
#        150
#        16581
#        36897
#        56691
#        75969
#        95543
#        110325
#        128535
#        148315
#        163194
#        185609
#        203063
#        227889
#        242894
#        264007
#
# Disc length: 3857 seconds
#
# Revision: 5
# Processed by: cddbd v1.5.1PL0 Copyright (c) Steve Scherf et al.
# Submitted via: ExactAudioCopy v0.95a5
#
DISCID=c00f0f0f
DTITLE=Jagged Edge - Hard
DYEAR=2003
DGENRE=Hip Hip
TTITLE0=They Ain't JE
TTITLE1=Walked Outta Heaven
TTITLE2=Girls Gone Wild feat. Major Damage
TTITLE3=Visions
TTITLE4=Hard
TTITLE5=Dance Floor
TTITLE6=Trying To Find The Words
TTITLE7=What's It Like
TTITLE8=Tryna Be Your Man
TTITLE9=I Don't Wanna
TTITLE10=In Private
TTITLE11=In The Morning
TTITLE12=Shady Girl
TTITLE13=Car Show feat. Big Boi
TTITLE14=They Ain't JE feat. Street Katz and Woonie (Remix)
EXTD=
EXTT0=
EXTT1=
EXTT2=
EXTT3=
EXTT4=
EXTT5=
EXTT6=
EXTT7=
EXTT8=
EXTT9=
EXTT10=
EXTT11=
EXTT12=
EXTT13=
EXTT14=
PLAYORDER=
